<svg width="22" height="21" viewBox="0 0 22 21" fill="none" xmlns="http://www.w3.org/2000/svg">
<g clip-path="url(#clip0)">
<path fill-rule="evenodd" clip-rule="evenodd" d="M6.27161 9.625V11.725H9.74536C9.60536 12.6254 8.69536 14.3675 6.27161 14.3675C4.18036 14.3675 2.47411 12.6359 2.47411 10.5C2.47411 8.365 4.18036 6.6325 6.27161 6.6325C7.46161 6.6325 8.25786 7.14 8.71286 7.5775L10.3754 5.97625C9.30786 4.97875 7.92536 4.375 6.27161 4.375C2.88536 4.375 0.146606 7.11375 0.146606 10.5C0.146606 13.8862 2.88536 16.625 6.27161 16.625C9.80661 16.625 12.1525 14.14 12.1525 10.64C12.1525 10.2375 12.1079 9.93125 12.0554 9.625H6.27161ZM6.27161 9.625L21.1466 11.375H18.5216V14H16.7716V11.375H14.1466V9.625H16.7716V7H18.5216V9.625H21.1466V11.375L6.27161 9.625Z" fill="white"/>
</g>
<defs>
<clipPath id="clip0">
<rect width="21" height="21" fill="white" transform="translate(0.146606)"/>
</clipPath>
</defs>
</svg>
