<svg width="58" height="24" viewBox="0 0 58 24" fill="none" xmlns="http://www.w3.org/2000/svg">
<path d="M8.55661 13.9238C8.55661 13.5488 8.4238 13.2597 8.15817 13.0566C7.89645 12.8535 7.42184 12.6484 6.73434 12.4413C6.04684 12.2343 5.49997 12.0038 5.09372 11.7499C4.31637 11.2617 3.9277 10.6249 3.9277 9.83978C3.9277 9.15228 4.207 8.58588 4.76559 8.14056C5.32809 7.69525 6.05661 7.4726 6.95114 7.4726C7.54489 7.4726 8.07419 7.58197 8.53903 7.80072C9.00387 8.01947 9.36911 8.33197 9.63473 8.73822C9.90036 9.14056 10.0332 9.58783 10.0332 10.08H8.55661C8.55661 9.6347 8.41598 9.28705 8.13473 9.03705C7.85739 8.78314 7.45895 8.65619 6.93942 8.65619C6.45505 8.65619 6.07809 8.7597 5.80856 8.96674C5.54294 9.17377 5.41012 9.46283 5.41012 9.83392C5.41012 10.1464 5.55466 10.4081 5.84372 10.6191C6.13278 10.8261 6.60934 11.0292 7.27341 11.2285C7.93747 11.4238 8.47067 11.6484 8.87301 11.9023C9.27536 12.1523 9.57028 12.4413 9.75778 12.7695C9.94528 13.0937 10.039 13.4745 10.039 13.912C10.039 14.623 9.76559 15.1894 9.21872 15.6113C8.67575 16.0292 7.93747 16.2382 7.00387 16.2382C6.38669 16.2382 5.81833 16.1249 5.2988 15.8984C4.78317 15.6679 4.38083 15.3515 4.09176 14.9492C3.80661 14.5468 3.66403 14.0781 3.66403 13.5429H5.14645C5.14645 14.0273 5.30661 14.4023 5.62692 14.6679C5.94723 14.9335 6.40622 15.0663 7.00387 15.0663C7.5195 15.0663 7.90622 14.9628 8.16403 14.7558C8.42575 14.5449 8.55661 14.2675 8.55661 13.9238ZM16.1152 14.1347H12.8105L12.1191 16.121H10.5781L13.8007 7.58978H15.1308L18.3593 16.121H16.8125L16.1152 14.1347ZM13.2265 12.9394H15.6992L14.4629 9.40033L13.2265 12.9394ZM26.0996 16.121H24.6172L20.8144 10.0683V16.121H19.332V7.58978H20.8144L24.6289 13.666V7.58978H26.0996V16.121ZM33.8398 8.7851H31.1797V16.121H29.709V8.7851H27.0722V7.58978H33.8398V8.7851ZM39.0371 14.1347H35.7324L35.041 16.121H33.5L36.7226 7.58978H38.0527L41.2812 16.121H39.7343L39.0371 14.1347ZM36.1484 12.9394H38.6211L37.3847 9.40033L36.1484 12.9394ZM47.1699 12.5058H43.7363V16.121H42.2539V7.58978H47.6738V8.7851H43.7363V11.3222H47.1699V12.5058ZM53.8379 12.3124H50.334V14.9374H54.4297V16.121H48.8515V7.58978H54.3886V8.7851H50.334V11.1406H53.8379V12.3124Z" fill="white"/>
<path d="M0 0H57.9999V1.56054L0 5.46188V0Z" fill="white"/>
<path d="M58 23.4081L6.48499e-05 23.4081L6.47029e-05 21.8475L58 17.9462L58 23.4081Z" fill="white"/>
</svg>
